<svg width="22" height="20" viewBox="0 0 22 20" fill="none" xmlns="http://www.w3.org/2000/svg">
<path d="M21.9713 7.04351L21.4249 5.0871C21.3099 4.67542 20.8828 4.43496 20.4712 4.54982C20.2147 4.62149 20.0247 4.81425 19.9457 5.04899C19.548 4.53233 19.0759 4.04941 18.5331 3.60971C16.6975 2.12286 14.2665 1.30397 11.6881 1.30397C11.3347 1.30397 10.9831 1.31991 10.6346 1.3508C9.9689 0.85589 9.14489 0.5625 8.25351 0.5625H6.48397C6.23445 0.5625 6.00019 0.682812 5.85482 0.885667C5.70946 1.08852 5.67088 1.34896 5.75106 1.58528L6.13906 2.72812C4.78233 3.50087 3.68323 4.54273 2.94628 5.76188C2.48389 6.52685 1.68867 6.98352 0.819026 6.98352H0.773995C0.346542 6.98352 0 7.33006 0 7.75747V11.9159C0 12.2734 0.24475 12.5843 0.592151 12.6682C2.00221 13.0091 3.31031 13.7134 4.37498 14.7053C4.67095 14.981 4.9918 15.2412 5.33293 15.4823L4.86564 18.5466C4.83165 18.7697 4.89667 18.9965 5.0437 19.1677C5.19074 19.3388 5.40516 19.4373 5.63079 19.4373H9.06755C9.45096 19.4373 9.77662 19.1566 9.83308 18.7773L10.0523 17.3054C10.5916 17.3804 11.139 17.4182 11.688 17.4182C12.9067 17.4182 14.1204 17.2288 15.2496 16.8657L15.5343 18.7773C15.5908 19.1566 15.9164 19.4373 16.2998 19.4373H19.7366C20.164 19.4373 20.5106 19.0908 20.5106 18.6634V12.823C21.128 11.7496 21.4534 10.5573 21.4534 9.36106C21.4534 8.90667 21.4078 8.45855 21.3197 8.01975C21.3578 8.01507 21.396 8.00772 21.434 7.99711C21.8457 7.88217 22.0862 7.45523 21.9713 7.04351ZM19.0777 12.204C19.0025 12.3262 18.9626 12.4668 18.9626 12.6102V17.8894H16.967L16.64 15.6937C16.6047 15.4565 16.4615 15.2491 16.2521 15.1321C16.0428 15.0151 15.7911 15.0016 15.5706 15.0959C14.384 15.6025 13.0414 15.8703 11.688 15.8703C10.9697 15.8703 10.2552 15.7959 9.56431 15.6493C9.35544 15.605 9.13754 15.6489 8.96219 15.7706C8.78679 15.8924 8.66953 16.0812 8.63812 16.2924L8.40029 17.8894H6.53171L6.93738 15.229C6.98378 14.9247 6.84538 14.6218 6.58495 14.4576C6.16446 14.1925 5.77589 13.8948 5.43008 13.5727C4.3214 12.54 2.98937 11.7707 1.5479 11.3264V8.46534C2.66977 8.259 3.65595 7.58001 4.27091 6.56273C4.83178 5.63491 5.65541 4.84261 6.64919 4.23099L6.8459 4.8103C6.95534 5.13256 7.25625 5.33567 7.57868 5.33567C7.66118 5.33567 7.74514 5.3224 7.8276 5.29438C8.23232 5.15697 8.44906 4.71744 8.31164 4.31268L7.56399 2.11045H8.25351C9.60504 2.11045 10.7045 3.20997 10.7045 4.56146C10.7045 4.98892 11.0511 5.33546 11.4785 5.33546C11.906 5.33546 12.2525 4.98892 12.2525 4.56146C12.2525 3.95079 12.1145 3.37192 11.8686 2.85372C16.3166 2.93007 19.9054 5.81972 19.9054 9.36111C19.9054 10.3566 19.6269 11.3131 19.0777 12.204Z" fill="#FFF2F2"/>
</svg>
