<svg width="97" height="97" viewBox="0 0 97 97" fill="none" xmlns="http://www.w3.org/2000/svg">
<rect width="97" height="97" rx="48.5" fill="#EADDFF"/>
<path fill-rule="evenodd" clip-rule="evenodd" d="M63.0506 38.8C63.0506 46.8357 56.5363 53.35 48.5006 53.35C40.4648 53.35 33.9506 46.8357 33.9506 38.8C33.9506 30.7643 40.4648 24.25 48.5006 24.25C56.5363 24.25 63.0506 30.7643 63.0506 38.8ZM58.2006 38.8C58.2006 44.1572 53.8578 48.5 48.5006 48.5C43.1434 48.5 38.8006 44.1572 38.8006 38.8C38.8006 33.4428 43.1434 29.1 48.5006 29.1C53.8578 29.1 58.2006 33.4428 58.2006 38.8Z" fill="#4F378A"/>
<path d="M48.5006 60.625C32.8002 60.625 19.4231 69.9089 14.3274 82.9157C15.5687 84.1484 16.8764 85.3143 18.2446 86.4077C22.0391 74.4662 33.9426 65.475 48.5006 65.475C63.0586 65.475 74.9622 74.4662 78.7566 86.4078C80.1248 85.3143 81.4325 84.1484 82.6738 82.9157C77.5781 69.9089 64.201 60.625 48.5006 60.625Z" fill="#4F378A"/>
</svg>
